<svg xmlns="http://www.w3.org/2000/svg" viewBox="0 0 141.7 34.7"><title>logo et24</title><path d="M23.1,15.9a8.6,8.6,0,0,1,8.5,8.6,9.2,9.2,0,0,1-1.1,4.3,8.7,8.7,0,0,0,4.1-7.3,8.5,8.5,0,0,0-8.5-8.6,8.3,8.3,0,0,0-7.5,4.2A8.7,8.7,0,0,1,23.1,15.9Z" transform="translate(0 -0.1)" style="fill:#761032"/><path d="M22.9,19.6a8.6,8.6,0,0,1,1,12.1,9.4,9.4,0,0,1-3.7,2.5,8.8,8.8,0,0,0,7.9-2.9,8.6,8.6,0,0,0-.9-12.1,8.8,8.8,0,0,0-8.5-1.6A8.6,8.6,0,0,1,22.9,19.6Z" transform="translate(0 -0.1)" style="fill:#761032"/><path d="M20.4,22.4a8.5,8.5,0,0,1-7.1,9.8,8.2,8.2,0,0,1-4.4-.4,8.6,8.6,0,0,0,7.9,2.9,8.6,8.6,0,0,0,1.7-16.5A8.1,8.1,0,0,1,20.4,22.4Z" transform="translate(0 -0.1)" style="fill:#761032"/><path d="M16.5,23.1A8.5,8.5,0,0,1,4.8,25.9a7.9,7.9,0,0,1-3.1-3.2,8.6,8.6,0,0,0,15.9,4.5,8.8,8.8,0,0,0,.2-8.6A8.1,8.1,0,0,1,16.5,23.1Z" transform="translate(0 -0.1)" style="fill:#761032"/><path d="M13.1,20.9A8.6,8.6,0,0,1,2.3,15.4,8.2,8.2,0,0,1,2.1,11,8.8,8.8,0,0,0,.4,19.3a8.6,8.6,0,0,0,16.5-1A7.4,7.4,0,0,1,13.1,20.9Z" transform="translate(0 -0.1)" style="fill:#761032"/><path d="M12,17.3a8.5,8.5,0,0,1-5-11A9,9,0,0,1,9.5,2.7,8.9,8.9,0,0,0,3.1,8.2a8.7,8.7,0,0,0,5.1,11,8.6,8.6,0,0,0,8.5-1.5A8.5,8.5,0,0,1,12,17.3Z" transform="translate(0 -0.1)" style="fill:#231f20"/><path d="M13.4,14A8.5,8.5,0,0,1,16.2,2.3,9.8,9.8,0,0,1,20.5,1,8.6,8.6,0,0,0,9.2,13.1a8.8,8.8,0,0,0,7.5,4.1A8.4,8.4,0,0,1,13.4,14Z" transform="translate(0 -0.1)" style="fill:#231f20"/><path d="M16.5,12.1a8.5,8.5,0,0,1,9.6-7.3,8,8,0,0,1,4.1,1.7A8.6,8.6,0,0,0,13.9,8.8a8.7,8.7,0,0,0,3.2,7.9A8.9,8.9,0,0,1,16.5,12.1Z" transform="translate(0 -0.1)" style="fill:#231f20"/><path d="M20.5,12.7a8.6,8.6,0,0,1,12.1.9,9.2,9.2,0,0,1,1.9,4,8.3,8.3,0,0,0-1.7-8.2,8.6,8.6,0,0,0-12-1,8.8,8.8,0,0,0-2.9,8.1A9.6,9.6,0,0,1,20.5,12.7Z" transform="translate(0 -0.1)" style="fill:#231f20"/><path d="M50.5,16.5a27,27,0,0,0,3.1-2.6,10.3,10.3,0,0,0,1.9-2.7,5.9,5.9,0,0,0,.7-2.9,5.5,5.5,0,0,0-2.3-4.4,8.7,8.7,0,0,0-5.8-1.7,10.9,10.9,0,0,0-5.7,1.4,7.7,7.7,0,0,0-3,5.4v.6h5.3V9.1a2.7,2.7,0,0,1,1.1-2,3.6,3.6,0,0,1,2.2-.7,3,3,0,0,1,2,.6,2.1,2.1,0,0,1,.6,1.6,3.7,3.7,0,0,1-.8,2.1A42.6,42.6,0,0,1,46,13.9a26.2,26.2,0,0,0-5.3,5A9.7,9.7,0,0,0,39,23v.6H56.2V18.9H47.8Z" transform="translate(0 -0.1)" style="fill:#761032"/><path d="M72.7,15V2.2H68.1L57.4,15.4v4.1h9.8v4.1h5.5V19.5h3V15Zm-9.3,0,3.8-4.9V15Z" transform="translate(0 -0.1)" style="fill:#761032"/><path d="M88.7,4.4v1H86.3v1h.6a3,3,0,0,1,1.6.5,1.8,1.8,0,0,1,.6,1.3,1.7,1.7,0,0,1-.5,1.2,3.3,3.3,0,0,1-2.2.6H85V4.4ZM86.2,9h.5a1.1,1.1,0,0,0,.8-.3.6.6,0,0,0,.3-.6.6.6,0,0,0-.3-.6,1.1,1.1,0,0,0-.8-.3h-.5Z" transform="translate(0 -0.1)" style="fill:#231f20"/><path d="M91.1,4.4V6.3h.6c1.2,0,2.2.5,2.2,1.8a1.6,1.6,0,0,1-.4,1.1,3.2,3.2,0,0,1-2.3.7H89.9V4.4Zm0,4.6h.5a.9.9,0,0,0,1-.9,1,1,0,0,0-1-.9h-.5Zm4.5-4.6V9.9H94.4V4.4Z" transform="translate(0 -0.1)" style="fill:#231f20"/><path d="M100.8,9.7a3.2,3.2,0,0,1-1.4.3,2.6,2.6,0,0,1-2.8-2.8,2.7,2.7,0,0,1,2.9-2.8l1.4.2-.3,1-1-.2a1.6,1.6,0,0,0-1.7,1.8,1.5,1.5,0,0,0,1.7,1.7h1Z" transform="translate(0 -0.1)" style="fill:#231f20"/><path d="M102.8,5.5h-1.4V4.4h4.2V5.5h-1.5V9.9h-1.3Z" transform="translate(0 -0.1)" style="fill:#231f20"/><path d="M106.2,4.5h1.7a2.7,2.7,0,0,1,1.7.4,1.9,1.9,0,0,1,.5,1.3,1.5,1.5,0,0,1-.5,1.3,2.4,2.4,0,0,1-1.7.6h-.5v2h-1.2ZM107.4,7h.5c.6,0,1-.3,1-.9s-.3-.8-.9-.8h-.6Z" transform="translate(0 -0.1)" style="fill:#231f20"/><path d="M115.9,7.1a2.6,2.6,0,0,1-2.7,2.9,2.6,2.6,0,0,1-2.5-2.8,2.6,2.6,0,0,1,2.6-2.8A2.5,2.5,0,0,1,115.9,7.1Zm-3.9.1c0,1,.5,1.8,1.3,1.8s1.3-.8,1.3-1.9-.5-1.8-1.3-1.8S112,6.1,112,7.2Z" transform="translate(0 -0.1)" style="fill:#231f20"/><path d="M116.5,9.2a.7.7,0,0,1,.8-.7.7.7,0,0,1,.7.7.8.8,0,0,1-.7.8A.8.8,0,0,1,116.5,9.2Zm.3-1.1-.2-3.7h1.3l-.2,3.7Z" transform="translate(0 -0.1)" style="fill:#231f20"/><path d="M86.2,13.9v2.2h.2l1.5-2.2h1.5l-1.9,2.4a1.6,1.6,0,0,1,1.2,1.3l.6,1.7H88a5.6,5.6,0,0,1-.4-1.2c-.2-.6-.5-1.1-1.1-1.1h-.3v2.3H85V13.9Z" transform="translate(0 -0.1)" style="fill:#231f20"/><path d="M91.3,17.9l-.4,1.4H89.6l1.7-5.4h1.6l1.7,5.4H93.3l-.4-1.4Zm1.4-.9-.4-1.2a3.6,3.6,0,0,1-.2-1H92a3.6,3.6,0,0,1-.2,1L91.5,17Z" transform="translate(0 -0.1)" style="fill:#231f20"/><path d="M96.5,13.9v1.6a.8.8,0,0,0,.9.9l.8-.2V13.9h1.3v5.4H98.2V17.1h0a2.7,2.7,0,0,1-1.2.3,1.6,1.6,0,0,1-1.7-1.7V13.9Z" transform="translate(0 -0.1)" style="fill:#231f20"/><path d="M103.8,17h-2v1.3H104v1h-3.5V13.9h3.4v1h-2.1V16h2Z" transform="translate(0 -0.1)" style="fill:#231f20"/><path d="M108.9,19.2l-1.4.2a2.6,2.6,0,0,1-2.9-2.7,2.8,2.8,0,0,1,3-2.9l1.3.2-.2,1-1.1-.2a1.7,1.7,0,0,0-1.7,1.8,1.7,1.7,0,0,0,1.8,1.8l1-.2Z" transform="translate(0 -0.1)" style="fill:#231f20"/><path d="M110.9,14.9h-1.5v-1h4.2v1h-1.5v4.4h-1.2Z" transform="translate(0 -0.1)" style="fill:#231f20"/><path d="M114.3,14l1.6-.2a3.5,3.5,0,0,1,1.6.3,1.1,1.1,0,0,1,.6,1.1,1.2,1.2,0,0,1-.9,1.2h0a1.3,1.3,0,0,1,1.1,1.3,1.7,1.7,0,0,1-.5,1.2,3.7,3.7,0,0,1-2.2.5h-1.3Zm1.2,2h.4c.7,0,1-.2,1-.6s-.3-.7-.9-.7h-.5Zm0,2.4h.5a.9.9,0,0,0,1-.8c0-.6-.5-.8-1.1-.8h-.4Z" transform="translate(0 -0.1)" style="fill:#231f20"/><path d="M122.4,17h-2v1.3h2.2v1h-3.4V13.9h3.3v1h-2.1V16h2Z" transform="translate(0 -0.1)" style="fill:#231f20"/><path d="M124.7,13.9V16h2.1V13.9H128v5.4h-1.2V17h-2.1v2.3h-1.2V13.9Z" transform="translate(0 -0.1)" style="fill:#231f20"/><path d="M130.3,13.9V16h2V13.9h1.3v5.4h-1.3V17h-2v2.3h-1.2V13.9Z" transform="translate(0 -0.1)" style="fill:#231f20"/><path d="M139.7,16.5a2.6,2.6,0,0,1-2.7,2.9,2.5,2.5,0,0,1-2.6-2.8,2.6,2.6,0,0,1,2.7-2.8A2.5,2.5,0,0,1,139.7,16.5Zm-4,.1c0,1.1.5,1.8,1.3,1.8s1.3-.8,1.3-1.8-.4-1.8-1.3-1.8S135.7,15.6,135.7,16.6Z" transform="translate(0 -0.1)" style="fill:#231f20"/><path d="M140.3,18.7a.7.7,0,1,1,1.4,0,.7.7,0,1,1-1.4,0Zm.2-1.2V13.9h1.3l-.2,3.6Z" transform="translate(0 -0.1)" style="fill:#231f20"/><path d="M89.4,23.1v4.5h.5v2.3h-.9V28.6H85.6v1.3h-1V27.6h.5l.5-1.2a9.9,9.9,0,0,0,.2-1.8V23.1Zm-2.5,1.8a8.8,8.8,0,0,1-.2,1.7,3,3,0,0,1-.4,1h1.8V24.1H86.9Z" transform="translate(0 -0.1)" style="fill:#231f20"/><path d="M95.5,25.8c0,1.8-1,2.9-2.6,2.9a2.6,2.6,0,0,1-2.6-2.8A2.7,2.7,0,0,1,92.9,23,2.6,2.6,0,0,1,95.5,25.8Zm-3.9.1c0,1,.5,1.8,1.3,1.8s1.3-.8,1.3-1.9S93.8,24,92.9,24,91.6,24.8,91.6,25.9Z" transform="translate(0 -0.1)" style="fill:#231f20"/><path d="M100.4,28.4l-1.4.2a2.6,2.6,0,0,1-2.9-2.7,2.8,2.8,0,0,1,3-2.9,3.1,3.1,0,0,1,1.3.3l-.2,1-1.1-.2a1.6,1.6,0,0,0-1.7,1.8,1.6,1.6,0,0,0,1.7,1.7h1.1Z" transform="translate(0 -0.1)" style="fill:#231f20"/><path d="M102.4,24.2h-1.5V23.1h4.2v1.1h-1.5v4.4h-1.2Z" transform="translate(0 -0.1)" style="fill:#231f20"/><path d="M106.8,23.1l.8,1.9a7.6,7.6,0,0,1,.4,1.1h0a8.1,8.1,0,0,0,.3-1.1l.6-1.9h1.3l-1,2.7a8.2,8.2,0,0,1-1.1,2.1,1.6,1.6,0,0,1-1.4.8h-.6v-1h.4a.7.7,0,0,0,.7-.5c.1-.1,0-.1,0-.2l-1.8-3.8Z" transform="translate(0 -0.1)" style="fill:#231f20"/><path d="M115.1,23.1v5.5h-1.2V24.1H112v4.5h-1.3V23.1Z" transform="translate(0 -0.1)" style="fill:#231f20"/><path d="M117.4,23.1v2.1h2.1V23.1h1.2v5.5h-1.2V26.3h-2.1v2.3h-1.2V23.1Z" transform="translate(0 -0.1)" style="fill:#231f20"/><path d="M126.8,25.8a2.7,2.7,0,1,1-5.3.1,2.7,2.7,0,0,1,2.7-2.9A2.6,2.6,0,0,1,126.8,25.8Zm-4,.1c0,1,.5,1.8,1.4,1.8s1.3-.8,1.3-1.9S125,24,124.2,24,122.8,24.8,122.8,25.9Z" transform="translate(0 -0.1)" style="fill:#231f20"/><path d="M127.4,27.9a.7.7,0,0,1,.7-.7.7.7,0,0,1,.8.7.8.8,0,0,1-.8.8A.8.8,0,0,1,127.4,27.9Zm.3-1.1-.2-3.7h1.3l-.2,3.7Z" transform="translate(0 -0.1)" style="fill:#231f20"/><path d="M41.7,27.5a2.7,2.7,0,0,0-2,.7,2.6,2.6,0,0,0-.7,2,2.4,2.4,0,0,0,.6,1.7,2.5,2.5,0,0,0,2.2.9,2.5,2.5,0,0,0,1.6-.4,1.8,1.8,0,0,0,1-1.1h0l-1.7-.3h0l-.3.5h-.6a1.3,1.3,0,0,1-.8-.3,1.1,1.1,0,0,1-.3-.7h3.8a3.2,3.2,0,0,0-.8-2.3A2.7,2.7,0,0,0,41.7,27.5Zm-1,2.1.3-.7.8-.2a1,1,0,0,1,.7.2l.3.7Z" transform="translate(0 -0.1)" style="fill:#231f20"/><path d="M48.2,31.4c-.5.1-.7.2-.8.1h-.1V28.8h1V27.6h-1V25.8l-1.7.8v1h-.7v1.2h.7v3c.1.2.1.4.2.6l.6.3h.7l1.3-.2h0V31.4Z" transform="translate(0 -0.1)" style="fill:#231f20"/><rect x="49.1" y="25.6" width="1.7" height="1.42" style="fill:#231f20"/><rect x="49.1" y="27.5" width="1.7" height="5.13" style="fill:#231f20"/><polygon points="57.6 27.5 55.4 27.5 53.8 29.1 53.8 25.6 52.1 25.6 52.1 32.6 53.8 32.6 53.8 31 54.4 30.5 55.8 32.6 57.7 32.6 55.5 29.4 57.6 27.5" style="fill:#231f20"/><path d="M60.5,27.5a2.5,2.5,0,0,0-1.9.7,2.6,2.6,0,0,0-.8,2,2.4,2.4,0,0,0,.6,1.7,2.9,2.9,0,0,0,2.3.9,2.7,2.7,0,0,0,1.6-.4,2,2,0,0,0,.9-1.1h.1l-1.7-.3h-.1a.5.5,0,0,1-.3.5h-.5a1.1,1.1,0,0,1-.8-.3.8.8,0,0,1-.3-.7h3.7a3.2,3.2,0,0,0-.7-2.3A2.8,2.8,0,0,0,60.5,27.5Zm-.9,2.1a.9.9,0,0,1,.3-.7l.7-.2a.8.8,0,0,1,.7.2.9.9,0,0,1,.3.7Z" transform="translate(0 -0.1)" style="fill:#231f20"/><path d="M67,31.4c-.4.1-.6.2-.8.1h0c-.1-.1-.1-.2-.1-.7V28.8h1.1V27.6H66.1V25.8l-1.7.8v1h-.7v1.2h.7v2.1a2.2,2.2,0,0,0,.1.9,1.4,1.4,0,0,0,.2.6l.5.3H66l1.2-.2h.1l-.2-1.2Z" transform="translate(0 -0.1)" style="fill:#231f20"/><polygon points="73.4 27.5 71.3 27.5 69.6 29.1 69.6 25.6 67.9 25.6 67.9 32.6 69.6 32.6 69.6 31 70.2 30.5 71.6 32.6 73.5 32.6 71.3 29.4 73.4 27.5" style="fill:#231f20"/><rect x="74.1" y="25.6" width="1.7" height="1.42" style="fill:#231f20"/><rect x="74.1" y="27.5" width="1.7" height="5.13" style="fill:#231f20"/></svg>