<svg xmlns="http://www.w3.org/2000/svg" viewBox="0 0 50 50"><title>logo_viber</title><path d="M6.3,0H43.8A6.3,6.3,0,0,1,50,6.3V43.8A6.2,6.2,0,0,1,43.8,50H6.3A6.3,6.3,0,0,1,0,43.8V6.3A6.3,6.3,0,0,1,6.3,0Z" style="fill:#7b519d"/><path d="M41.2,33.7,37.5,31c-2.5-1.7-4.8-1.9-6.7,1s-2.5,1.6-4,.9a17.8,17.8,0,0,1-9.4-9.1c-.9-1.9-.8-3.6,1.1-5s2.1-1.5,2.1-3.1-5.1-8.8-7-9.5a3.3,3.3,0,0,0-2.4,0c-4.6,1.5-6.5,5.3-4.7,9.7,5.4,13.2,14.9,22.4,28,28.1a10.8,10.8,0,0,0,1.9.5c3,.1,6.5-2.8,7.5-5.6s-1.1-3.9-2.7-5.2Z" style="fill:#fff"/><path d="M26.6,7.6c9.5,1.4,13.9,6,15.1,15.6.1.9-.2,2.2,1.1,2.2s1-1.3,1-2.2c.1-9-7.8-17.4-17-17.7-.6.1-2.1-.5-2.2,1.1s1.2.8,2,1Z" style="fill:#fff"/><path d="M28.4,10.2c-.9-.1-2.1-.5-2.3.7s1.1,1.2,2,1.4C34,13.6,36,15.8,37,21.6c.1.9-.1,2.2,1.3,2s.7-1.3.8-2c0-5.6-4.8-10.7-10.7-11.4Z" style="fill:#fff"/><path d="M29,14.8a1.5,1.5,0,0,0-1.5.7c-.3,1,.4,1.2,1.1,1.4,2.5.3,3.7,1.8,4,4.2a1,1,0,0,0,1.1,1.1c.9-.1.9-.9.9-1.6,0-2.7-3-5.9-5.6-5.8Z" style="fill:#fff"/></svg>