<?xml version="1.0" encoding="utf-8"?>
<!-- Generator: Adobe Illustrator 22.1.0, SVG Export Plug-In . SVG Version: 6.00 Build 0)  -->
<svg version="1.0" id="Layer_1" xmlns="http://www.w3.org/2000/svg" xmlns:xlink="http://www.w3.org/1999/xlink" x="0px" y="0px"
	 viewBox="0 0 50 50" style="enable-background:new 0 0 50 50;" xml:space="preserve">
<style type="text/css">
	.st0{enable-background:new    ;}
	.st1{fill:url(#SVGID_2_);}
	.st2{fill:#FFFFFF;}
</style>
<g>
	<g class="st0">
		<g>
			<g>
				
					<linearGradient id="SVGID_2_" gradientUnits="userSpaceOnUse" x1="25.0225" y1="49.875" x2="25.0225" y2="-0.125" gradientTransform="matrix(1 0 0 -1 -2.250000e-02 49.875)">
					<stop  offset="0" style="stop-color:#61FD7D"/>
					<stop  offset="1" style="stop-color:#2BB826"/>
				</linearGradient>
				<path id="SVGID_1_" class="st1" d="M50,37.3c0,0.3,0,0.9,0,1.3c0,1.1-0.1,2.6-0.3,3.2c-0.2,1-0.5,1.9-0.9,2.7
					c-0.5,0.9-1.1,1.7-1.8,2.5c-0.7,0.7-1.5,1.3-2.5,1.8c-0.8,0.4-1.7,0.7-2.7,0.9c-0.7,0.1-2.1,0.2-3.2,0.3c-0.5,0-1.1,0-1.3,0
					l-24.6,0c-0.3,0-0.9,0-1.3,0c-1.1,0-2.6-0.1-3.2-0.3c-1-0.2-1.9-0.5-2.7-0.9C4.5,48.3,3.7,47.7,3,47c-0.7-0.7-1.3-1.5-1.8-2.5
					c-0.4-0.8-0.7-1.7-0.9-2.7c-0.1-0.7-0.2-2.1-0.3-3.2c0-0.5,0-1.1,0-1.3l0-24.6c0-0.3,0-0.9,0-1.3c0-1.1,0.1-2.6,0.3-3.2
					c0.2-1,0.5-1.9,0.9-2.7C1.7,4.5,2.3,3.7,3,3c0.7-0.7,1.5-1.3,2.5-1.8c0.8-0.4,1.7-0.7,2.7-0.9c0.7-0.1,2.1-0.2,3.2-0.3
					c0.5,0,1.1,0,1.3,0l24.6,0c0.3,0,0.9,0,1.3,0c1.1,0,2.6,0.1,3.2,0.3c1,0.2,1.9,0.5,2.7,0.9C45.5,1.7,46.3,2.3,47,3
					c0.7,0.7,1.3,1.5,1.8,2.5c0.4,0.8,0.7,1.7,0.9,2.7c0.1,0.7,0.2,2.1,0.3,3.2c0,0.5,0,1.1,0,1.3L50,37.3z"/>
			</g>
		</g>
	</g>
	<g id="logo">
		<g>
			<g>
				<path class="st2" d="M38.2,11.8c-3.4-3.4-7.9-5.3-12.7-5.3c-9.9,0-17.9,8-17.9,17.9c0,3.2,0.8,6.2,2.4,9l-2.5,9.3l9.5-2.5
					c2.6,1.4,5.6,2.2,8.6,2.2h0c0,0,0,0,0,0c9.9,0,17.9-8,17.9-17.9C43.5,19.7,41.6,15.2,38.2,11.8z M25.6,39.4L25.6,39.4
					c-2.7,0-5.3-0.7-7.6-2.1L17.4,37l-5.6,1.5l1.5-5.5l-0.4-0.6c-1.5-2.4-2.3-5.1-2.3-7.9c0-8.2,6.7-14.9,14.9-14.9
					c4,0,7.7,1.6,10.5,4.4c2.8,2.8,4.4,6.6,4.4,10.5C40.5,32.7,33.8,39.4,25.6,39.4z M33.7,28.2c-0.4-0.2-2.7-1.3-3.1-1.5
					c-0.4-0.1-0.7-0.2-1,0.2c-0.3,0.4-1.2,1.5-1.4,1.8c-0.3,0.3-0.5,0.3-1,0.1c-0.4-0.2-1.9-0.7-3.6-2.2c-1.3-1.2-2.2-2.7-2.5-3.1
					c-0.3-0.4,0-0.7,0.2-0.9c0.2-0.2,0.4-0.5,0.7-0.8c0.2-0.3,0.3-0.4,0.4-0.7c0.1-0.3,0.1-0.6,0-0.8c-0.1-0.2-1-2.4-1.4-3.3
					c-0.4-0.9-0.7-0.8-1-0.8c-0.3,0-0.6,0-0.9,0c-0.3,0-0.8,0.1-1.2,0.6c-0.4,0.4-1.6,1.5-1.6,3.7c0,2.2,1.6,4.3,1.8,4.6
					c0.2,0.3,3.2,4.8,7.7,6.8c1.1,0.5,1.9,0.7,2.6,0.9c1.1,0.3,2,0.3,2.8,0.2c0.9-0.1,2.7-1.1,3-2.1c0.4-1,0.4-1.9,0.3-2.1
					C34.5,28.6,34.2,28.5,33.7,28.2z"/>
			</g>
		</g>
	</g>
</g>
</svg>
